<svg id="Слой_1" data-name="Слой 1" xmlns="http://www.w3.org/2000/svg" viewBox="0 0 110.70405 23.15708">
  <defs>
    <style>
      .cls-1 {
        fill: #5c92fd;
      }

      .cls-2 {
        fill: #fff;
      }
    </style>
  </defs>
  <g>
    <path class="cls-1" d="M27.24135,3H11.40216A3.663,3.663,0,0,0,7.74321,6.659V22.49813a3.663,3.663,0,0,0,3.659,3.659H27.24135a3.663,3.663,0,0,0,3.659-3.65894V6.659A3.663,3.663,0,0,0,27.24135,3ZM28.461,22.49814a1.221,1.221,0,0,1-1.21954,1.2196H11.40216a1.221,1.221,0,0,1-1.21954-1.2196V6.659a1.221,1.221,0,0,1,1.21954-1.21954H27.24135A1.221,1.221,0,0,1,28.46089,6.659V22.49814Z" transform="translate(-7.74321 -3)"/>
    <path class="cls-2" d="M23.81449,9.8561a1.46286,1.46286,0,0,0-1.04143.43163l-5.44957,5.45844L15.871,14.29384a1.47234,1.47234,0,0,0-2.08234,2.08208l2.49389,2.49389a1.47221,1.47221,0,0,0,2.0826-.00026l6.49047-6.49981A1.47241,1.47241,0,0,0,23.81449,9.8561Z" transform="translate(-7.74321 -3)"/>
  </g>
  <g>
    <path class="cls-1" d="M39.6709,7.80762h9.19336V9.82031H39.6709Zm3.55078,1.0459h2.0918V20.58691h-2.0918Z" transform="translate(-7.74321 -3)"/>
    <path class="cls-1" d="M49.85742,7.80762h2.0918V9.9082h-2.0918Zm0,3.65625h2.0918v9.123h-2.0918Z" transform="translate(-7.74321 -3)"/>
    <path class="cls-1" d="M54.43652,11.46387h2.10059v9.123H54.43652Zm5.3877,3.72656a1.963,1.963,0,0,0-.43506-1.3667,1.58313,1.58313,0,0,0-1.23486-.479,1.62671,1.62671,0,0,0-1.19532.41748,1.589,1.589,0,0,0-.42187,1.18213l-.18457-1.88965a3.27767,3.27767,0,0,1,1.05469-1.27881A2.51736,2.51736,0,0,1,58.875,11.332a2.93646,2.93646,0,0,1,1.64355.44824,2.7768,2.7768,0,0,1,1.04151,1.314,5.48468,5.48468,0,0,1,.356,2.0874v5.40527h-2.0918Zm5.3789,0a1.95023,1.95023,0,0,0-.43945-1.3667,1.60853,1.60853,0,0,0-1.24805-.479,1.51253,1.51253,0,0,0-1.18212.46142,1.89161,1.89161,0,0,0-.41748,1.314l-.4043-1.9336a3.45339,3.45339,0,0,1,1.12939-1.37109,2.66565,2.66565,0,0,1,1.55127-.4834,3.05123,3.05123,0,0,1,1.68311.44824,2.798,2.798,0,0,1,1.06347,1.314,5.36662,5.36662,0,0,1,.36475,2.0874v5.40527H65.20312Z" transform="translate(-7.74321 -3)"/>
    <path class="cls-1" d="M71.46973,20.24414a3.22943,3.22943,0,0,1-1.39746-1.39258,4.71633,4.71633,0,0,1-.4834-2.21972V15.60352a5.28832,5.28832,0,0,1,.46142-2.31153A3.25218,3.25218,0,0,1,71.395,11.833a4.23669,4.23669,0,0,1,2.12256-.501,3.38794,3.38794,0,0,1,2,.58447,3.608,3.608,0,0,1,1.26465,1.6919,7.293,7.293,0,0,1,.43554,2.67187v.59766H71.02148V15.33984H75.2666l-.00879-.09668a2.611,2.611,0,0,0-.53613-1.48535,1.49954,1.49954,0,0,0-1.2041-.52734,1.84547,1.84547,0,0,0-1.46778.59326,2.47788,2.47788,0,0,0-.51855,1.68311V16.667a1.95185,1.95185,0,0,0,2.14453,2.15332,2.80871,2.80871,0,0,0,1.02393-.19726,3.10921,3.10921,0,0,0,.90967-.54981l1.37109,1.28321a5.128,5.128,0,0,1-1.56055,1.00683,4.56715,4.56715,0,0,1-1.74414.35547A4.73615,4.73615,0,0,1,71.46973,20.24414Z" transform="translate(-7.74321 -3)"/>
    <path class="cls-2" d="M76.9541,7.80762h9.19336V9.82031H76.9541Zm3.55078,1.0459h2.0918V20.58691h-2.0918Z" transform="translate(-7.74321 -3)"/>
    <path class="cls-2" d="M86.8418,20.01953a2.69947,2.69947,0,0,1-.78223-2.12207,2.52484,2.52484,0,0,1,.791-2.03027,3.57244,3.57244,0,0,1,2.373-.67676H91.667L91.79,16.8252H89.23242a1.4229,1.4229,0,0,0-.93652.26367.99963.99963,0,0,0-.31152.80859.95937.95937,0,0,0,.40429.84863,2.18644,2.18644,0,0,0,1.22168.27637,3.825,3.825,0,0,0,1.49024-.21973.72242.72242,0,0,0,.4873-.68554l.18457,1.30078a1.53558,1.53558,0,0,1-.52344.7207,2.57025,2.57025,0,0,1-.90039.43555,4.37284,4.37284,0,0,1-1.15136.14453A3.43891,3.43891,0,0,1,86.8418,20.01953Zm4.74609-5.21582a1.54543,1.54543,0,0,0-.45215-1.18652,1.808,1.808,0,0,0-1.27929-.42188,3.31185,3.31185,0,0,0-1.03711.167,3.20264,3.20264,0,0,0-.91407.46582l-1.39746-1.17773a3.54521,3.54521,0,0,1,1.40625-.97119,5.17526,5.17526,0,0,1,1.9336-.34717,4.52318,4.52318,0,0,1,1.98632.3999,2.83,2.83,0,0,1,1.26075,1.16016,3.6226,3.6226,0,0,1,.43554,1.83252v5.8623H91.58789Z" transform="translate(-7.74321 -3)"/>
    <path class="cls-2" d="M96.0791,7.80762h2.10059V20.58691H96.0791Zm2.874,12.50293a2.40039,2.40039,0,0,1-.89648-1.15625l.123-1.99512a1.94352,1.94352,0,0,0,.18457.88379,1.28605,1.28605,0,0,0,.53613.55762,1.74617,1.74617,0,0,0,.85254.19336,1.526,1.526,0,0,0,1.21289-.49219,2.05607,2.05607,0,0,0,.43066-1.39746V15.19043a2.138,2.138,0,0,0-.43066-1.42822,1.50669,1.50669,0,0,0-1.21289-.50537,1.77937,1.77937,0,0,0-.85254.189,1.25159,1.25159,0,0,0-.53613.55811,1.96642,1.96642,0,0,0-.18457.88769L97.99512,13.002a3.071,3.071,0,0,1,1.02343-1.23486,2.44859,2.44859,0,0,1,1.41114-.43506,2.97832,2.97832,0,0,1,1.65722.44824,2.79713,2.79713,0,0,1,1.04981,1.314,5.425,5.425,0,0,1,.36035,2.0874V16.9043a5.2432,5.2432,0,0,1-.36523,2.06054,2.78923,2.78923,0,0,1-1.06739,1.30567,3.05656,3.05656,0,0,1-1.67871.44824A2.50939,2.50939,0,0,1,98.95312,20.31055Z" transform="translate(-7.74321 -3)"/>
    <path class="cls-2" d="M107.9707,17.90625a.726.726,0,0,0,.167.51367.61182.61182,0,0,0,.4746.18067h.624v2.01269h-1.14258a2.12136,2.12136,0,0,1-1.63965-.63281,2.53236,2.53236,0,0,1-.584-1.78418V7.80762h2.10058Z" transform="translate(-7.74321 -3)"/>
    <path class="cls-2" d="M112.69922,20.24414a3.22943,3.22943,0,0,1-1.39746-1.39258,4.71633,4.71633,0,0,1-.4834-2.21972V15.60352a5.30235,5.30235,0,0,1,.46094-2.31153,3.25419,3.25419,0,0,1,1.3457-1.459,4.23221,4.23221,0,0,1,2.12207-.501,3.38169,3.38169,0,0,1,1.999.58447,3.60316,3.60316,0,0,1,1.26563,1.6919,7.293,7.293,0,0,1,.43555,2.67187v.59766H112.251V15.33984h4.24511l-.00879-.09668a2.611,2.611,0,0,0-.53613-1.48535,1.49952,1.49952,0,0,0-1.2041-.52734,1.84543,1.84543,0,0,0-1.46777.59326,2.47784,2.47784,0,0,0-.51856,1.68311V16.667a1.95185,1.95185,0,0,0,2.14453,2.15332,2.81507,2.81507,0,0,0,1.02442-.19726,3.12583,3.12583,0,0,0,.90918-.54981L118.21,19.35645a5.13539,5.13539,0,0,1-1.55957,1.00683,4.57747,4.57747,0,0,1-1.74512.35547A4.73618,4.73618,0,0,1,112.69922,20.24414Z" transform="translate(-7.74321 -3)"/>
  </g>
</svg>
