<svg xmlns="http://www.w3.org/2000/svg" width="156" height="36.651" viewBox="0 0 156 36.651">
  <g id="Сгруппировать_66" data-name="Сгруппировать 66" transform="translate(-393 -11.543)">
    <text id="TimeTable" transform="translate(462 38)" fill="#ababab" font-size="20" font-family="SFProDisplay-Medium, SF Pro Display" font-weight="500"><tspan x="0" y="0">TimeTable</tspan></text>
    <g id="Снимок-экрана-2020-11-10-164740" transform="translate(307 353.18)">
      <path id="Контур_42" data-name="Контур 42" d="M116.734-341.594c-.4.077-3.7,1.356-12.493,4.886-3.543,1.42-6.616,2.635-6.83,2.711-.37.128-.341.153.811.691.64.307,1.451.678,1.779.831l.583.281,4.98-1.982c2.746-1.087,5.791-2.315,6.787-2.711l1.821-.742,1.793.9,1.807.883.512-.23a1.762,1.762,0,0,1,1.707,0,1.9,1.9,0,0,1,1.01,1.407,1.849,1.849,0,0,1-.882,1.432,1.925,1.925,0,0,1-2.675-.806c-.242-.473-.441-.614-1.779-1.279l-1.508-.742-6.787,2.686c-3.742,1.484-6.844,2.7-6.9,2.7s-1.224-.55-2.59-1.228a11.292,11.292,0,0,0-2.732-1.151c-.825.23-8.566,3.428-8.822,3.645-.256.192-.327.384-.327.844,0,.742.228.959,1.892,1.765l1.238.614v15.425l-.526.307a3.624,3.624,0,0,0-.953.857,2.008,2.008,0,0,0-.484,1.407,2.749,2.749,0,0,0,1.892,2.916c2.5,1.062,5.193-.883,4.624-3.351a2.532,2.532,0,0,0-.8-1.317,3.564,3.564,0,0,0-.911-.716c-.285-.077-.285-.243-.285-7.111,0-4.067.057-7.022.128-7.022s1.209.537,2.518,1.189l2.4,1.2.043-2.1.028-2.085.612-.281a38.619,38.619,0,0,1,10.088-2.967,64.065,64.065,0,0,1,24.658.883,39.238,39.238,0,0,1,5.279,1.739l.911.409v2.162a10.143,10.143,0,0,0,.114,2.123c.057-.026.839-.422,1.736-.883,3.8-1.97,7.726-3.952,7.826-3.952.3,0,.854-.806.854-1.228,0-.959.868-.537-10.458-5.065-4.226-1.688-9.732-3.888-12.237-4.9-7.385-2.955-7.612-3.044-8.395-3.082A6.484,6.484,0,0,0,116.734-341.594Z" transform="translate(0)" fill="#ababab"/>
      <path id="Контур_43" data-name="Контур 43" d="M187.8-243.542a48.87,48.87,0,0,0-13.332,2.917l-1.466.583v13.332l1.039-.484a27.4,27.4,0,0,1,2.689-1.025l1.679-.541v-2.888c0-2.419-.028-2.9-.213-2.96a1.816,1.816,0,0,1-.512-.583,1.777,1.777,0,0,1,.356-2.277,1.835,1.835,0,0,1,3.073,1.437,1.473,1.473,0,0,1-.5,1.067l-.5.541v5.25l1.252-.256a46.379,46.379,0,0,1,10.7-.882,47.6,47.6,0,0,1,10.387.783,35.511,35.511,0,0,1,8.025,2.419c.455.228.854.413.882.413s.057-2.988.057-6.631v-6.616l-.9-.413a43.5,43.5,0,0,0-7.883-2.348l-.47-.1v2.718c0,2.561.014,2.718.285,2.86a1.721,1.721,0,0,1,.669,1.693,1.736,1.736,0,0,1-1.693,1.579,1.8,1.8,0,0,1-1.394-3.059l.427-.441v-5.592l-.455-.071a39.5,39.5,0,0,0-7.086-.441C190.459-243.571,188.154-243.571,187.8-243.542Z" transform="translate(-74.621 -86.524)" fill="#ababab"/>
    </g>
  </g>
</svg>
