<svg xmlns="http://www.w3.org/2000/svg" width="446.884" height="281.874" viewBox="0 0 446.884 281.874">
  <g id="Снимок-экрана-2020-11-10-164740" transform="translate(-86 341.638)">
    <path id="Контур_42" data-name="Контур 42" d="M304.333-341.306c-2.83.59-26.281,10.427-88.749,37.576-25.169,10.919-47,20.263-48.519,20.854-2.628.984-2.426,1.18,5.762,5.312,4.549,2.361,10.31,5.213,12.635,6.394l4.144,2.164,35.378-15.247c19.508-8.361,41.14-17.8,48.215-20.854l12.938-5.705,12.736,6.886,12.837,6.787,3.639-1.771c4.549-2.262,7.783-2.262,12.13,0,3.74,1.967,7.177,7.181,7.177,10.82a14.424,14.424,0,0,1-6.267,11.017,13.185,13.185,0,0,1-19-6.2c-1.718-3.64-3.133-4.722-12.635-9.837l-10.715-5.705-48.215,20.657C211.238-266.744,189.2-257.4,188.8-257.4c-.505,0-8.693-4.23-18.4-9.443-11.422-6.1-18.3-9.246-19.407-8.853-5.863,1.771-60.85,26.362-62.67,28.034C86.505-246.186,86-244.71,86-241.169c0,5.705,1.617,7.377,13.444,13.574l8.794,4.722v118.629l-3.74,2.361a26.577,26.577,0,0,0-6.772,6.591c-2.527,3.443-3.133,5.41-3.437,10.82-.606,10.624,3.841,18.1,13.444,22.427,17.79,8.164,36.894-6.787,32.851-25.772-.91-3.935-2.224-6.394-5.66-10.132-2.527-2.754-5.458-5.213-6.469-5.509-2.022-.59-2.022-1.869-2.022-54.691,0-31.28.4-54,.91-54s8.592,4.131,17.891,9.148l17.083,9.246.3-16.132.2-16.034,4.346-2.164c19.509-10.033,44.779-18.1,71.666-22.821,56.5-10.132,123.924-7.476,175.172,6.787,14.353,4.033,28.5,9.148,37.5,13.378l6.469,3.148v16.624c0,9.148.4,16.525.809,16.329s5.964-3.246,12.332-6.787c26.988-15.148,54.887-30.4,55.594-30.4,2.123,0,6.065-6.2,6.065-9.443,0-7.377,6.166-4.131-74.294-38.953-30.021-12.984-69.139-29.9-86.929-37.674-52.461-22.723-54.078-23.411-59.637-23.706A42.559,42.559,0,0,0,304.333-341.306Z" transform="translate(0 0)" fill="#e2e2e2"/>
    <path id="Контур_43" data-name="Контур 43" d="M275.3-243.4c-34.526,3.049-66,9.935-92.169,20.165L173-219.2v92.169l7.181-3.344a189.372,189.372,0,0,1,18.591-7.082l11.607-3.738v-19.968c0-16.722-.2-20.067-1.476-20.46-.787-.3-2.361-2.164-3.541-4.033a12.287,12.287,0,0,1,2.459-15.739c8.361-7.673,21.247-1.574,21.247,9.935,0,2.656-.885,4.525-3.443,7.377l-3.443,3.738v36.3l8.656-1.771c23.706-4.82,39.543-6.1,73.971-6.1,34.625,0,48.888,1.082,71.807,5.41,21.444,4.131,43.183,10.624,55.478,16.722,3.148,1.574,5.9,2.853,6.1,2.853s.393-20.657.393-45.839v-45.74l-6.2-2.853c-11.9-5.41-35.707-12.492-54.495-16.23l-3.246-.689V-219.5c0,17.706.1,18.788,1.967,19.772,3.246,1.771,5.213,6.689,4.623,11.706A12,12,0,0,1,369.535-177.1c-11.706,0-17.608-12.886-9.64-21.149l2.951-3.049V-239.96l-3.148-.492c-13.476-2.262-21.739-2.754-48.986-3.049C293.7-243.6,277.76-243.6,275.3-243.4Z" transform="translate(4.644 -1.603)" fill="#e2e2e2"/>
  </g>
</svg>
