<svg xmlns="http://www.w3.org/2000/svg" width="146" height="29" viewBox="0 0 146 29">
  <g id="Сгруппировать_313" data-name="Сгруппировать 313" transform="translate(6 -3)">
    <text id="TimeTable" transform="translate(51 25)" fill="#fff" font-size="20" font-family="SegoeUI, Segoe UI"><tspan x="0" y="0">TimeTable</tspan></text>
    <g id="Снимок-экрана-2020-11-10-164740" transform="translate(-6 5)">
      <path id="Контур_42" data-name="Контур 42" d="M108.641-341.606c-.293.057-2.725,1-9.2,3.6-2.61,1.046-4.874,1.941-5.031,2-.273.094-.252.113.6.509.472.226,1.069.5,1.31.612l.43.207,3.669-1.46c2.023-.8,4.266-1.705,5-2l1.342-.546,1.321.66,1.331.65.377-.17a1.3,1.3,0,0,1,1.258,0,1.4,1.4,0,0,1,.744,1.036,1.362,1.362,0,0,1-.65,1.055,1.418,1.418,0,0,1-1.971-.594c-.178-.349-.325-.452-1.31-.942l-1.111-.547-5,1.979c-2.757,1.093-5.042,1.988-5.084,1.988s-.9-.405-1.908-.9a8.316,8.316,0,0,0-2.013-.848c-.608.17-6.31,2.525-6.5,2.685-.189.141-.241.283-.241.622,0,.546.168.707,1.394,1.3l.912.452V-318.9l-.388.226a2.67,2.67,0,0,0-.7.631A1.479,1.479,0,0,0,86.86-317a2.025,2.025,0,0,0,1.394,2.148,2.36,2.36,0,0,0,3.407-2.469,1.866,1.866,0,0,0-.587-.971,2.625,2.625,0,0,0-.671-.528c-.21-.057-.21-.179-.21-5.239,0-3,.042-5.173.094-5.173s.891.4,1.855.876l1.771.886.031-1.545.021-1.536.451-.207a28.451,28.451,0,0,1,7.432-2.186,47.2,47.2,0,0,1,18.165.65,28.9,28.9,0,0,1,3.889,1.281l.671.3v1.592a7.474,7.474,0,0,0,.084,1.564c.042-.019.618-.311,1.279-.65,2.8-1.451,5.692-2.912,5.765-2.912.22,0,.629-.594.629-.9,0-.707.639-.4-7.7-3.731-3.113-1.244-7.17-2.864-9.015-3.609-5.44-2.177-5.608-2.243-6.184-2.271A4.776,4.776,0,0,0,108.641-341.606Z" transform="translate(-86 341.638)" fill="#fff"/>
      <path id="Контур_43" data-name="Контур 43" d="M183.9-243.548a36,36,0,0,0-9.822,2.149l-1.08.43v9.822l.765-.356a20.194,20.194,0,0,1,1.981-.755l1.237-.4v-2.128c0-1.782-.021-2.138-.157-2.18a1.339,1.339,0,0,1-.377-.43,1.309,1.309,0,0,1,.262-1.677,1.352,1.352,0,0,1,2.264,1.059,1.085,1.085,0,0,1-.367.786l-.367.4v3.868l.922-.189a34.166,34.166,0,0,1,7.883-.65,35.067,35.067,0,0,1,7.652.576,26.159,26.159,0,0,1,5.912,1.782c.335.168.629.3.65.3s.042-2.2.042-4.885V-240.9l-.66-.3a32.052,32.052,0,0,0-5.807-1.73l-.346-.073v2c0,1.887.01,2,.21,2.107a1.268,1.268,0,0,1,.493,1.247,1.279,1.279,0,0,1-1.247,1.164,1.326,1.326,0,0,1-1.027-2.254l.314-.325v-4.119l-.335-.052a29.1,29.1,0,0,0-5.22-.325C185.861-243.569,184.163-243.569,183.9-243.548Z" transform="translate(-163.881 252.073)" fill="#fff"/>
    </g>
  </g>
</svg>
