<svg id="Сгруппировать_296" data-name="Сгруппировать 296" xmlns="http://www.w3.org/2000/svg" width="68.638" height="59.056" viewBox="0 0 68.638 59.056">
  <g id="Сгруппировать_295" data-name="Сгруппировать 295">
    <path id="blob_1_" data-name="blob (1)" d="M-3.795-40.321c3.655,7.366-1.329,18.608-7.421,27.8S-24.563,3.818-35.252,5.867C-45.941,7.861-60.119,4.7-66.765-4.766c-6.591-9.526-5.594-25.31,1.5-34.725,7.144-9.415,20.325-12.461,33.008-12.129C-19.579-51.343-7.395-47.743-3.795-40.321Z" transform="translate(71.189 51.644)" fill="#303339"/>
    <g id="Сгруппировать_294" data-name="Сгруппировать 294" transform="translate(13.686 25.056)">
      <circle id="Эллипс_30" data-name="Эллипс 30" cx="4" cy="4" r="4" transform="translate(0.29 0)" fill="#e5e5e5"/>
      <circle id="Эллипс_31" data-name="Эллипс 31" cx="4" cy="4" r="4" transform="translate(14.29 0)" fill="#e5e5e5"/>
      <circle id="Эллипс_32" data-name="Эллипс 32" cx="4" cy="4" r="4" transform="translate(28.29 0)" fill="#e5e5e5"/>
    </g>
    <g id="Контур_225" data-name="Контур 225" transform="translate(43.976 42.056)" fill="#e5e5e5">
      <path d="M 8.5 16.5 C 4.088789939880371 16.5 0.5 12.91121006011963 0.5 8.5 C 0.5 4.088789939880371 4.088789939880371 0.5 8.5 0.5 C 12.91121006011963 0.5 16.5 4.088789939880371 16.5 8.5 C 16.5 12.91121006011963 12.91121006011963 16.5 8.5 16.5 Z" stroke="none"/>
      <path d="M 8.5 1 C 4.364489555358887 1 1 4.364489555358887 1 8.5 C 1 12.6355094909668 4.364489555358887 16 8.5 16 C 12.6355094909668 16 16 12.6355094909668 16 8.5 C 16 4.364489555358887 12.6355094909668 1 8.5 1 M 8.5 0 C 13.19441986083984 0 17 3.805580139160156 17 8.5 C 17 13.19441986083984 13.19441986083984 17 8.5 17 C 3.805580139160156 17 0 13.19441986083984 0 8.5 C 0 3.805580139160156 3.805580139160156 0 8.5 0 Z" stroke="none" fill="#282b30"/>
    </g>
    <path id="search" d="M7.8,6.53,6.094,4.755A2.893,2.893,0,1,0,3.878,5.789a2.863,2.863,0,0,0,1.658-.524L7.256,7.053A.377.377,0,1,0,7.8,6.53ZM3.878.755A2.139,2.139,0,1,1,1.739,2.894,2.142,2.142,0,0,1,3.878.755Z" transform="translate(48.016 47.056)" fill="#232324"/>
  </g>
</svg>
