<svg xmlns="http://www.w3.org/2000/svg" width="68.638" height="59.056" viewBox="0 0 68.638 59.056">
  <g id="Сгруппировать_296" data-name="Сгруппировать 296" transform="translate(-153.059 -198.944)">
    <g id="Сгруппировать_295" data-name="Сгруппировать 295">
      <path id="blob_1_" data-name="blob (1)" d="M-3.795-40.321c3.655,7.366-1.329,18.608-7.421,27.8S-24.563,3.818-35.252,5.867C-45.941,7.861-60.119,4.7-66.765-4.766c-6.591-9.526-5.594-25.31,1.5-34.725,7.144-9.415,20.325-12.461,33.008-12.129C-19.579-51.343-7.395-47.743-3.795-40.321Z" transform="translate(224.248 250.587)" fill="#e5eeff"/>
      <g id="Сгруппировать_294" data-name="Сгруппировать 294" transform="translate(166.973 224.294)">
        <circle id="Эллипс_30" data-name="Эллипс 30" cx="4" cy="4" r="4" transform="translate(0.086 -0.294)" fill="#5c92fd"/>
        <circle id="Эллипс_31" data-name="Эллипс 31" cx="4" cy="4" r="4" transform="translate(14.086 -0.294)" fill="#5c92fd"/>
        <circle id="Эллипс_32" data-name="Эллипс 32" cx="4" cy="4" r="4" transform="translate(28.086 -0.294)" fill="#5c92fd"/>
      </g>
      <g id="Эллипс_33" data-name="Эллипс 33" transform="translate(197.059 241)" fill="#5c92fd" stroke="#fff" stroke-width="1">
        <circle cx="8.5" cy="8.5" r="8.5" stroke="none"/>
        <circle cx="8.5" cy="8.5" r="8" fill="none"/>
      </g>
      <path id="search" d="M7.8,6.53,6.094,4.755A2.893,2.893,0,1,0,3.878,5.789a2.863,2.863,0,0,0,1.658-.524L7.256,7.053A.377.377,0,1,0,7.8,6.53ZM3.878.755A2.139,2.139,0,1,1,1.739,2.894,2.142,2.142,0,0,1,3.878.755Z" transform="translate(201.075 246)" fill="#fff"/>
    </g>
  </g>
</svg>
