<svg id="add" xmlns="http://www.w3.org/2000/svg" width="14.074" height="14.074" viewBox="0 0 14.074 14.074">
  <g id="Сгруппировать_323" data-name="Сгруппировать 323">
    <g id="Сгруппировать_322" data-name="Сгруппировать 322">
      <path id="Контур_230" data-name="Контур 230" d="M7.037,0a7.037,7.037,0,1,0,7.037,7.037A7.045,7.045,0,0,0,7.037,0Zm0,12.984a5.947,5.947,0,1,1,5.947-5.947A5.954,5.954,0,0,1,7.037,12.984Z" fill="#fff"/>
    </g>
  </g>
  <g id="Сгруппировать_325" data-name="Сгруппировать 325" transform="translate(3.766 3.717)">
    <g id="Сгруппировать_324" data-name="Сгруппировать 324">
      <path id="Контур_231" data-name="Контур 231" d="M143.018,137.963h-2.18v-2.18a.545.545,0,1,0-1.09,0v2.18h-2.18a.545.545,0,1,0,0,1.09h2.18v2.18a.545.545,0,1,0,1.09,0v-2.18h2.18a.545.545,0,0,0,0-1.09Z" transform="translate(-137.022 -135.238)" fill="#fff"/>
    </g>
  </g>
</svg>
