<svg xmlns="http://www.w3.org/2000/svg" width="13.719" height="15.935" viewBox="0 0 13.719 15.935">
  <g id="bin" transform="translate(0)">
    <path id="Контур_237" data-name="Контур 237" d="M43.128,5.256h.288l1.4,10.273a.477.477,0,0,0,.478.406H53.72a.477.477,0,0,0,.478-.406l1.4-10.273h.288a.475.475,0,0,0,.482-.467V2.747a.475.475,0,0,0-.482-.467H51.756V2.1A2.134,2.134,0,0,0,49.591,0H49.42a2.134,2.134,0,0,0-2.165,2.1V2.28H43.128a.475.475,0,0,0-.482.467V4.789a.475.475,0,0,0,.482.467ZM53.3,15H45.715L44.389,5.256H54.622ZM48.22,2.1A1.183,1.183,0,0,1,49.42.934h.171a1.183,1.183,0,0,1,1.2,1.162V2.28H48.22ZM43.611,3.213H55.4V4.322H43.611Z" transform="translate(-42.646)" fill="#ff2e2e"/>
  </g>
</svg>
