<svg id="time_1_" data-name="time (1)" xmlns="http://www.w3.org/2000/svg" width="12.13" height="12.13" viewBox="0 0 12.13 12.13">
  <g id="Сгруппировать_318" data-name="Сгруппировать 318">
    <g id="Сгруппировать_317" data-name="Сгруппировать 317">
      <path id="Контур_228" data-name="Контур 228" d="M6.065,0A6.065,6.065,0,1,0,12.13,6.065,6.065,6.065,0,0,0,6.065,0Zm0,11.264a5.2,5.2,0,1,1,5.2-5.2A5.2,5.2,0,0,1,6.065,11.264Z" fill="#bbb"/>
    </g>
  </g>
  <g id="Сгруппировать_320" data-name="Сгруппировать 320" transform="translate(2.063 2.063)">
    <g id="Сгруппировать_319" data-name="Сгруппировать 319">
      <path id="Контур_229" data-name="Контур 229" d="M89.565,85.333a.47.47,0,0,0-.47.47V89.1H85.8a.47.47,0,1,0,0,.941h3.762a.47.47,0,0,0,.47-.47V85.8A.47.47,0,0,0,89.565,85.333Z" transform="translate(-85.333 -85.333)" fill="#bbb"/>
    </g>
  </g>
</svg>
