<svg id="clock-circular-outline" xmlns="http://www.w3.org/2000/svg" width="12.254" height="12.254" viewBox="0 0 12.254 12.254">
  <g id="Сгруппировать_231" data-name="Сгруппировать 231">
    <path id="Контур_185" data-name="Контур 185" d="M6.127,0a6.127,6.127,0,1,0,6.127,6.127A6.134,6.134,0,0,0,6.127,0Zm0,10.915a4.788,4.788,0,1,1,4.788-4.788A4.793,4.793,0,0,1,6.127,10.915Z" fill="#7b7b7b"/>
    <path id="Контур_186" data-name="Контур 186" d="M257.827,142.342v-2.568a.519.519,0,1,0-1.038,0v2.734c0,.008,0,.016,0,.024a.516.516,0,0,0,.15.392l1.933,1.933a.519.519,0,0,0,.734-.734Z" transform="translate(-251.17 -136.208)" fill="#7b7b7b"/>
  </g>
</svg>
