<svg xmlns="http://www.w3.org/2000/svg" width="15.799" height="15.829" viewBox="0 0 15.799 15.829">
  <g id="Сгруппировать_254" data-name="Сгруппировать 254" transform="translate(0 -0.336)">
    <path id="layers" d="M10.152,10.017h-8.3A1.855,1.855,0,0,1,.059,7.7l1.5-5.842A2.473,2.473,0,0,1,3.953,0h8.289a1.855,1.855,0,0,1,1.8,2.314L12.549,8.155a2.472,2.472,0,0,1-2.4,1.862Zm-6.2-8.78a1.236,1.236,0,0,0-1.2.929l-1.5,5.842a.618.618,0,0,0,.6.772h8.3a1.236,1.236,0,0,0,1.2-.931l1.491-5.841a.618.618,0,0,0-.6-.771Zm10.3,12.731L15.74,8.126a1.842,1.842,0,0,0-.472-1.757.618.618,0,1,0-.884.865.615.615,0,0,1,.158.586l-1.491,5.841a1.236,1.236,0,0,1-1.2.931h-8.3a.618.618,0,0,1-.6-.772l.5-1.95a.618.618,0,0,0-1.2-.307l-.5,1.95a1.855,1.855,0,0,0,1.8,2.316h8.3a2.472,2.472,0,0,0,2.4-1.862Zm0,0" transform="translate(0 0.336)" fill="#d6d6d6"/>
  </g>
</svg>
