<svg id="document" xmlns="http://www.w3.org/2000/svg" width="11" height="14" viewBox="0 0 11 14">
  <g id="Сгруппировать_328" data-name="Сгруппировать 328">
    <path id="Контур_232" data-name="Контур 232" d="M62.053,2.646l-2.5-2.5A.494.494,0,0,0,59.39.037.5.5,0,0,0,59.2,0H52.7a1.5,1.5,0,0,0-1.5,1.5v11A1.5,1.5,0,0,0,52.7,14h8a1.5,1.5,0,0,0,1.5-1.5V3A.506.506,0,0,0,62.053,2.646ZM59.7,1.707l.793.793H59.7ZM61.2,12.5a.5.5,0,0,1-.5.5h-8a.5.5,0,0,1-.5-.5V1.5a.5.5,0,0,1,.5-.5h6V3a.5.5,0,0,0,.5.5h2v9Z" transform="translate(-51.2 0)" fill="#fff"/>
  </g>
</svg>
