<?xml version="1.0"?>
<svg xmlns="http://www.w3.org/2000/svg" xmlns:xlink="http://www.w3.org/1999/xlink" xmlns:svgjs="http://svgjs.com/svgjs" version="1.1" width="512" height="512" x="0" y="0" viewBox="0 0 512.101 512.101" style="enable-background:new 0 0 512 512" xml:space="preserve" class=""><g><g xmlns="http://www.w3.org/2000/svg"><path d="m436.863 75.238c-100.3-100.301-261.291-100.335-361.625 0-99.983 99.983-100.652 260.973 0 361.624 100.3 100.301 261.291 100.335 361.625 0 100.3-100.3 100.334-261.29 0-361.624zm21.198 79.564c-7.109 14.53-26.026 52.044-48.828 88.034-39.58 62.472-66.508 81.423-77.545 78.662-2.104-.526-6.482-1.621-8.093-14.324-2.357-18.582 3.455-43.919 3.455-59.124 0-8.865-3.239-24.952-24.932-33.086-10.871-4.076-23.661-5.311-36.03-6.505-8.175-.789-21.857-2.11-25.038-4.409-3.994-2.996-4.261-4.971-4.348-5.62-.933-6.918 9.632-20.557 16.624-29.583 7.861-10.148 15.286-19.733 17.397-29.683 2.006-9.45 1.898-27.822-22.082-78.055-5.313-11.129-10.717-21.561-15.204-29.932 96.118-9.591 183.715 42.335 224.624 123.625zm-369.505-50.32c17.366 8.448 44.521 25.949 40.786 44.626-2.7 13.498-10.407 22.105-19.332 32.071-12.903 14.408-28.96 32.339-28.96 66.871 0 21.588-18.123 45.401-44.802 60.614-16.897-70.592.758-147.269 52.308-204.182zm167.494 377.568c-95.788 0-177.84-59.906-210.681-144.217 39.269-20.216 65.681-55.629 65.681-89.783 0-23.063 9.403-33.564 21.308-46.857 10.357-11.565 22.096-24.673 26.401-46.201 6.388-31.937-19.183-56.499-47.431-72.383 26.001-21.732 56.943-37.732 90.87-46.058 4.849 8.772 12.312 22.685 19.45 37.649 21.656 45.402 19.991 57.505 19.729 58.736-.686 3.234-7.355 11.843-11.768 17.54-11.836 15.279-25.251 32.597-22.638 51.965 1.35 10.003 6.759 18.619 16.079 25.609 16.708 12.531 50.417 8.21 68.535 15.003 5.465 2.049 5.465 3.481 5.465 4.997 0 12.245-6.106 40.11-3.217 62.897 3.465 27.323 18.541 36.646 30.579 39.655 3.173.793 6.393 1.192 9.664 1.192 28.376 0 60.683-30.009 100.636-93.121 15.214-24.032 28.548-48.278 38.108-66.577 42.739 144.612-66.264 289.954-216.77 289.954z" fill="#d6d6d6" data-original="#000000" style="" class=""/><path d="m238.58 334.208c-20.112-6.929-48.556-9.133-64.005.064-18.955 11.282-33.4 52.285-21.744 75.597 8.34 16.68 31.802 21.171 50.319 21.171 11.296 0 24.25-1.685 33.806-6.462 29.999-15 39.459-45.767 31.274-66.845-3.958-10.196-13.934-18.11-29.65-23.525zm-15.041 63.537c-4.105 2.053-13.972 3.801-24.885 3.175-11.331-.651-17.609-3.419-19.147-4.81-1.332-3.155-1.475-10.427 1.32-19.531 2.913-9.492 7.363-15.451 9.093-16.529 2.146-1.277 11.908-3.182 26.942-.518 14.477 2.565 22.072 7.363 23.488 9.288 2.66 7.365-1.646 21.343-16.811 28.925z" fill="#d6d6d6" data-original="#000000" style="" class=""/></g></g></svg>
