<svg id="excel_2_" data-name="excel (2)" xmlns="http://www.w3.org/2000/svg" width="31.834" height="29.846" viewBox="0 0 31.834 29.846">
  <path id="Контур_244" data-name="Контур 244" d="M270.922,101.9H256.995A1,1,0,0,1,256,100.9v-19.9a1,1,0,0,1,.995-.995h13.927a1,1,0,0,1,.995.995v19.9A1,1,0,0,1,270.922,101.9Z" transform="translate(-240.083 -76.03)" fill="#eceff1"/>
  <g id="Сгруппировать_387" data-name="Сгруппировать 387" transform="translate(15.917 7.96)">
    <path id="Контур_245" data-name="Контур 245" d="M260.974,146h-3.979a.995.995,0,0,1,0-1.99h3.979a.995.995,0,0,1,0,1.99Z" transform="translate(-256 -144.011)" fill="#388e3c"/>
    <path id="Контур_246" data-name="Контур 246" d="M260.974,210h-3.979a.995.995,0,0,1,0-1.99h3.979a.995.995,0,0,1,0,1.99Z" transform="translate(-256 -204.032)" fill="#388e3c"/>
    <path id="Контур_247" data-name="Контур 247" d="M260.974,274h-3.979a.995.995,0,1,1,0-1.99h3.979a.995.995,0,1,1,0,1.99Z" transform="translate(-256 -264.053)" fill="#388e3c"/>
    <path id="Контур_248" data-name="Контур 248" d="M260.974,338h-3.979a.995.995,0,1,1,0-1.99h3.979a.995.995,0,1,1,0,1.99Z" transform="translate(-256 -324.073)" fill="#388e3c"/>
    <path id="Контур_249" data-name="Контур 249" d="M386.984,146h-1.99a.995.995,0,0,1,0-1.99h1.99a.995.995,0,0,1,0,1.99Z" transform="translate(-376.042 -144.011)" fill="#388e3c"/>
    <path id="Контур_250" data-name="Контур 250" d="M386.984,210h-1.99a.995.995,0,0,1,0-1.99h1.99a.995.995,0,0,1,0,1.99Z" transform="translate(-376.042 -204.032)" fill="#388e3c"/>
    <path id="Контур_251" data-name="Контур 251" d="M386.984,274h-1.99a.995.995,0,0,1,0-1.99h1.99a.995.995,0,0,1,0,1.99Z" transform="translate(-376.042 -264.053)" fill="#388e3c"/>
    <path id="Контур_252" data-name="Контур 252" d="M386.984,338h-1.99a.995.995,0,0,1,0-1.99h1.99a.995.995,0,0,1,0,1.99Z" transform="translate(-376.042 -324.073)" fill="#388e3c"/>
  </g>
  <path id="Контур_253" data-name="Контур 253" d="M17.546,16.22a.978.978,0,0,0-.818-.211L.812,18.993A.992.992,0,0,0,0,19.97V41.856a.994.994,0,0,0,.812.977l15.917,2.984a.936.936,0,0,0,.183.018.995.995,0,0,0,.995-.995V16.986A.992.992,0,0,0,17.546,16.22Z" transform="translate(0 -15.989)" fill="#2e7d32"/>
  <path id="Контур_254" data-name="Контур 254" d="M88.691,169.319l-3.146-3.6,3.181-4.091a1,1,0,0,0-1.57-1.224L84.211,164.2l-2.483-2.837a.994.994,0,1,0-1.5,1.309l2.736,3.128-2.774,3.565a1,1,0,0,0,1.572,1.222l2.537-3.263,2.893,3.3a.993.993,0,1,0,1.5-1.307Z" transform="translate(-75.011 -151.071)" fill="#fafafa"/>
</svg>
