<svg xmlns="http://www.w3.org/2000/svg" width="330" height="330" viewBox="0 0 330 330">
  <g id="exchange" transform="translate(0 0)">
    <path id="XMLID_17_" d="M315,75H51.213l49.393-49.394A15,15,0,0,0,79.393,4.393l-75,75a15,15,0,0,0,0,21.213l75,75a15,15,0,1,0,21.213-21.213L51.213,105H315a15,15,0,0,0,0-30Z" fill="#141a27"/>
    <path id="XMLID_18_" d="M250.606,154.393a15,15,0,0,0-21.213,21.213L278.787,225H15a15,15,0,0,0,0,30H278.787l-49.393,49.394a15,15,0,1,0,21.212,21.212l75-75a15,15,0,0,0,0-21.213Z" fill="#141a27"/>
  </g>
</svg>
