<?xml version="1.0"?>
<svg xmlns="http://www.w3.org/2000/svg" xmlns:xlink="http://www.w3.org/1999/xlink" xmlns:svgjs="http://svgjs.com/svgjs" version="1.1" width="512" height="512" x="0" y="0" viewBox="0 0 426.667 426.667" style="enable-background:new 0 0 512 512" xml:space="preserve" class=""><g>
<g xmlns="http://www.w3.org/2000/svg">
	<g>
		<g>
			<path d="M42.667,85.333H0V384c0,23.573,19.093,42.667,42.667,42.667h298.667V384H42.667V85.333z" fill="#ffffff" data-original="#000000" style="" class=""/>
			<rect x="149.333" y="138.667" width="21.333" height="21.333" fill="#ffffff" data-original="#000000" style="" class=""/>
			<path d="M384,0H128c-23.573,0-42.667,19.093-42.667,42.667v256c0,23.573,19.093,42.667,42.667,42.667h256     c23.573,0,42.667-19.093,42.667-42.667v-256C426.667,19.093,407.573,0,384,0z M202.667,160c0,17.707-14.293,32-32,32h-21.333     v42.667h-32v-128h53.333c17.707,0,32,14.293,32,32V160z M309.333,202.667c0,17.707-14.293,32-32,32H224v-128h53.333     c17.707,0,32,14.293,32,32V202.667z M394.667,138.667h-32V160h32v32h-32v42.667h-32v-128h64V138.667z" fill="#ffffff" data-original="#000000" style="" class=""/>
			<rect x="256" y="138.667" width="21.333" height="64" fill="#ffffff" data-original="#000000" style="" class=""/>
		</g>
	</g>
</g>
<g xmlns="http://www.w3.org/2000/svg">
</g>
<g xmlns="http://www.w3.org/2000/svg">
</g>
<g xmlns="http://www.w3.org/2000/svg">
</g>
<g xmlns="http://www.w3.org/2000/svg">
</g>
<g xmlns="http://www.w3.org/2000/svg">
</g>
<g xmlns="http://www.w3.org/2000/svg">
</g>
<g xmlns="http://www.w3.org/2000/svg">
</g>
<g xmlns="http://www.w3.org/2000/svg">
</g>
<g xmlns="http://www.w3.org/2000/svg">
</g>
<g xmlns="http://www.w3.org/2000/svg">
</g>
<g xmlns="http://www.w3.org/2000/svg">
</g>
<g xmlns="http://www.w3.org/2000/svg">
</g>
<g xmlns="http://www.w3.org/2000/svg">
</g>
<g xmlns="http://www.w3.org/2000/svg">
</g>
<g xmlns="http://www.w3.org/2000/svg">
</g>
</g></svg>
