<svg id="file-folder" xmlns="http://www.w3.org/2000/svg" width="42.373" height="33.531" viewBox="0 0 42.373 33.531">
  <path id="Контур_239" data-name="Контур 239" d="M42.045,51.1a1.273,1.273,0,0,0-.946-.421H40.86a5.355,5.355,0,0,0-5.314-4.755H21.441V44.671A1.273,1.273,0,0,0,20.168,43.4H5.348A5.354,5.354,0,0,0,0,48.746q0,.057.005.113L2.042,71.695c0,.006,0,.013,0,.019.326,3.119,2.472,5.215,5.341,5.215h27.6c2.759,0,4.852-2.023,5.333-5.155,0-.02.006-.041.008-.062l2.037-19.629A1.273,1.273,0,0,0,42.045,51.1Zm-3.761-.421H24.242A2.806,2.806,0,0,1,21.5,48.471H35.546A2.806,2.806,0,0,1,38.284,50.679ZM37.8,71.417c-.118.734-.655,2.965-2.811,2.965H7.385c-1.84,0-2.656-1.509-2.807-2.924L2.547,48.694a2.714,2.714,0,0,1,2.8-2.75H18.894v1.934a5.354,5.354,0,0,0,5.348,5.348H39.687Z" transform="translate(0 -43.398)" fill="#75a4ff"/>
</svg>
