<svg xmlns="http://www.w3.org/2000/svg" width="512" height="433.29" viewBox="0 0 512 433.29">
  <g id="folder" transform="translate(0 -39.356)">
    <g id="Сгруппировать_487" data-name="Сгруппировать 487">
      <path id="Контур_277" data-name="Контур 277" d="M448.916,118.259H286.866a24.48,24.48,0,0,1-17.44-7.292L218.863,57.7a64.082,64.082,0,0,0-45.625-18.346H63.084A63.156,63.156,0,0,0,0,102.439V409.562a63.158,63.158,0,0,0,63.084,63.084H449.206A63.148,63.148,0,0,0,512,409.369V181.342A63.157,63.157,0,0,0,448.916,118.259Zm24.5,291.188a24.519,24.519,0,0,1-24.307,24.616H63.084a24.535,24.535,0,0,1-24.5-24.5V102.439a24.565,24.565,0,0,1,24.5-24.52H174.377a24.342,24.342,0,0,1,16.9,6.733l50.293,53.013a63.383,63.383,0,0,0,45.3,19.176h162.05a24.535,24.535,0,0,1,24.5,24.5V409.447Z" fill="#d6d6d6"/>
    </g>
  </g>
</svg>
