<svg id="insurance" xmlns="http://www.w3.org/2000/svg" width="31.583" height="37.9" viewBox="0 0 31.583 37.9">
  <path id="Контур_71" data-name="Контур 71" d="M16.054,17.051a1.19,1.19,0,0,1-.477-.1l-9.87-4.343a1.186,1.186,0,0,1,0-2.17L15.577,6.1a1.193,1.193,0,0,1,.954,0l9.87,4.343a1.186,1.186,0,0,1,0,2.17l-9.87,4.343A1.19,1.19,0,0,1,16.054,17.051Z" transform="translate(-0.262 3.474)" fill="#c8c8c8"/>
  <path id="Контур_72" data-name="Контур 72" d="M16.327,15.351a3.563,3.563,0,0,1-2.855,0L7,12.505v1.086a2.771,2.771,0,0,0,1.314,2.361A12.59,12.59,0,0,0,14.9,18.024a12.6,12.6,0,0,0,6.582-2.072,2.769,2.769,0,0,0,1.314-2.361V12.505Z" transform="translate(0.896 7.243)" fill="#c8c8c8"/>
  <path id="Контур_73" data-name="Контур 73" d="M17.792,37.9a1.6,1.6,0,0,1-.414-.055C17.223,37.8,2,33.5,2,18.832V6.986A1.579,1.579,0,0,1,3.019,5.51L17.231.1a1.581,1.581,0,0,1,1.123,0L32.566,5.51a1.58,1.58,0,0,1,1.017,1.477V18.832C33.583,33.5,18.36,37.8,18.205,37.845A1.6,1.6,0,0,1,17.792,37.9ZM5.158,8.074V18.832c0,11.128,10.366,15.1,12.633,15.839,2.268-.736,12.633-4.711,12.633-15.839V8.074L17.792,3.269Z" transform="translate(-2 0)" fill="#c8c8c8"/>
</svg>
