<?xml version="1.0"?>
<svg xmlns="http://www.w3.org/2000/svg" xmlns:xlink="http://www.w3.org/1999/xlink" xmlns:svgjs="http://svgjs.com/svgjs" version="1.1" width="512" height="512" x="0" y="0" viewBox="0 0 512 512" style="enable-background:new 0 0 512 512" xml:space="preserve"><g><g xmlns="http://www.w3.org/2000/svg"><path d="m497 76h-15v315c0 24.814-21.186 45-46 45h-137.563c-6.196 17.461-22.881 30-42.437 30s-36.24-12.539-42.437-30h-137.563c-24.814 0-46-20.186-46-45v-315h-15c-8.291 0-15 6.709-15 15v360c0 8.291 6.709 15 15 15h168.563c6.196 17.461 22.881 30 42.437 30h60c19.556 0 36.24-12.539 42.437-30h168.563c8.291 0 15-6.709 15-15v-360c0-8.291-6.709-15-15-15z" fill="#5c92fd" data-original="#000000" style=""/><path d="m241 395.01v-344.066c-20.762-17.351-54.1-34.944-105-34.944-8.291 0-15 6.709-15 15v300c0 8.291 6.709 15 15 15 69.384 0 98.318 38.377 105 49.01z" fill="#5c92fd" data-original="#000000" style=""/><path d="m436 406c8.291 0 15-6.709 15-15v-330c0-8.291-6.709-15-15-15h-120c-16.948 0-32.426 5.865-45 15.383v359.617c0-8.276 6.724-15 15-15z" fill="#5c92fd" data-original="#000000" style=""/><path d="m76 46c-8.291 0-15 6.709-15 15v330c0 8.291 6.709 15 15 15h135.848c-8.401-10.183-30.432-30-75.848-30-24.814 0-45-20.186-45-45v-285z" fill="#5c92fd" data-original="#000000" style=""/></g></g></svg>
