<svg id="pencil" xmlns="http://www.w3.org/2000/svg" width="13.342" height="12.915" viewBox="0 0 13.342 12.915">
  <g id="Сгруппировать_357" data-name="Сгруппировать 357">
    <path id="Контур_238" data-name="Контур 238" d="M12.926,1.572,11.717.4a1.452,1.452,0,0,0-2,0L.719,9.109a.381.381,0,0,0-.108.2l-.6,3.16a.371.371,0,0,0,.108.336.4.4,0,0,0,.348.1l3.264-.585a.4.4,0,0,0,.205-.1l8.995-8.708A1.34,1.34,0,0,0,12.926,1.572ZM.879,12.065l.366-1.912,1.609,1.558Zm2.776-.648L1.548,9.377,9.241,1.93l2.107,2.04Zm8.718-8.44-.473.458L9.793,1.394l.473-.458a.651.651,0,0,1,.9,0l1.209,1.17A.6.6,0,0,1,12.374,2.976Z" transform="translate(0 0)" fill="#539dfd"/>
  </g>
</svg>
