<svg xmlns="http://www.w3.org/2000/svg" width="43.405" height="54.206" viewBox="0 0 43.405 54.206">
  <g id="speech-bubble_1_" data-name="speech-bubble (1)" transform="translate(-10 -3.094)">
    <g id="copy" transform="translate(-38.65 3.094)">
      <g id="Сгруппировать_481" data-name="Сгруппировать 481" transform="translate(48.65)">
        <path id="Контур_275" data-name="Контур 275" d="M78.134,85.4h-25.2a4.288,4.288,0,0,0-4.285,4.285v36.156a4.288,4.288,0,0,0,4.285,4.285h25.2a4.288,4.288,0,0,0,4.285-4.285V89.685A4.3,4.3,0,0,0,78.134,85.4Zm1.277,40.43a1.289,1.289,0,0,1-1.288,1.288h-25.2a1.289,1.289,0,0,1-1.288-1.288V89.685A1.289,1.289,0,0,1,52.924,88.4h25.2a1.289,1.289,0,0,1,1.288,1.288Z" transform="translate(-48.65 -75.92)" fill="#c2c2c2"/>
        <path id="Контур_276" data-name="Контур 276" d="M164.934,0h-25.2a4.288,4.288,0,0,0-4.285,4.285,1.5,1.5,0,1,0,3,0A1.289,1.289,0,0,1,139.735,3h25.2a1.289,1.289,0,0,1,1.288,1.288V40.441a1.289,1.289,0,0,1-1.288,1.288,1.5,1.5,0,1,0,0,3,4.288,4.288,0,0,0,4.285-4.285V4.285A4.288,4.288,0,0,0,164.934,0Z" transform="translate(-125.814)" fill="#c2c2c2"/>
      </g>
    </g>
  </g>
</svg>
