<svg xmlns="http://www.w3.org/2000/svg" width="23.433" height="29.578" viewBox="0 0 23.433 29.578">
  <g id="surface1" transform="translate(-0.5)">
    <path id="Контур_257" data-name="Контур 257" d="M16.439.229A.716.716,0,0,0,15.925,0H4.387A3.9,3.9,0,0,0,.5,3.879V25.7a3.9,3.9,0,0,0,3.887,3.88h15.66a3.9,3.9,0,0,0,3.887-3.88V8.373a.769.769,0,0,0-.207-.5Zm.207,2.293,4.88,5.122H18.354a1.7,1.7,0,0,1-1.708-1.7Zm3.4,25.627H4.387A2.475,2.475,0,0,1,1.929,25.7V3.879a2.475,2.475,0,0,1,2.458-2.45H15.217V5.944a3.125,3.125,0,0,0,3.136,3.129H22.5V25.7A2.47,2.47,0,0,1,20.047,28.149Zm0,0" transform="translate(0 0)" fill="#fff"/>
    <path id="Контур_258" data-name="Контур 258" d="M101.646,401.934H89.886a.714.714,0,1,0,0,1.429h11.767a.714.714,0,1,0-.007-1.429Zm0,0" transform="translate(-83.549 -378.715)" fill="#fff"/>
    <path id="Контур_259" data-name="Контур 259" d="M123,181.114a.709.709,0,0,0,1.043,0l4.187-4.494a.713.713,0,0,0-1.043-.972l-2.951,3.165v-7.8a.714.714,0,0,0-1.429,0v7.8l-2.943-3.165a.713.713,0,0,0-1.043.972Zm0,0" transform="translate(-111.304 -160.459)" fill="#fff"/>
  </g>
</svg>
